<svg xmlns="http://www.w3.org/2000/svg" width="4rem" height="4rem" viewBox="0 0 65 65"><g id="LOGO_DAS" transform="translate(0 0.03)"><path id="Path_8" data-name="Path 8" d="M33.984,7.49a26.636,26.636,0,1,0,26.53,27,26.647,26.647,0,0,0-26.53-27" transform="translate(-1.613 -1.655)" fill="#fff"></path><path id="Path_9" data-name="Path 9" d="M34.351,8.5A25.712,25.712,0,0,0,9,34.665a25.514,25.514,0,0,0,51.029,0A25.809,25.809,0,0,0,34.351,8.5" transform="translate(-1.981 -1.878)" fill="#006cb2"></path><path id="Path_10" data-name="Path 10" d="M79.556,40.281a21.008,21.008,0,0,0,2.129-.78,4.141,4.141,0,0,1-.78,1.451H77.56a3.426,3.426,0,0,1-.78-1.482l2.145.819a1.217,1.217,0,0,0,.671,0" transform="translate(-16.685 -8.613)" fill="#fcc602"></path><path id="Path_11" data-name="Path 11" d="M79.515,42.71a1.217,1.217,0,0,0-.671,0l-2.145.873a4.712,4.712,0,0,1,.78-1.474h3.353a4.359,4.359,0,0,1,.78,1.443,21.059,21.059,0,0,0-2.137-.78" transform="translate(-16.668 -9.188)" fill="#fcc602"></path><path id="Path_12" data-name="Path 12" d="M2.166,40.277a1.216,1.216,0,0,0,.671,0l2.145-.827a4.519,4.519,0,0,1-.78,1.482H.84a4.1,4.1,0,0,1-.78-1.443,21.012,21.012,0,0,0,2.129.78" transform="translate(-0.013 -8.608)" fill="#fcc602"></path><path id="Path_13" data-name="Path 13" d="M2.137,42.7A17.4,17.4,0,0,0,0,43.481,4.071,4.071,0,0,1,.78,42.03H4.133a3.5,3.5,0,0,1,.78,1.482l-2.113-.8a1.185,1.185,0,0,0-.663,0" transform="translate(0 -9.171)" fill="#fcc602"></path><path id="Path_14" data-name="Path 14" d="M36.182-.007a3.587,3.587,0,0,1-2.1,2.238c-.46.195-2.386.78-2.394-.156A2.457,2.457,0,0,1,33.53.516,14.092,14.092,0,0,0,36.182-.03" transform="translate(-6.887 0)" fill="#fcc602"></path><path id="Path_15" data-name="Path 15" d="M34.662,3.65c.881,0,2.457.616,2.745,1.747-1.2-.289-1.646.25-2.73.164-.647-.055-1.739-.671-1.63-1.217s.6-.694,1.614-.694" transform="translate(-7.181 -0.81)" fill="#fcc602"></path><path id="Path_16" data-name="Path 16" d="M29.724,1.15a3.424,3.424,0,0,1-1.49,2.464c-.382.273-2.02,1.209-2.215.335a2.34,2.34,0,0,1,1.388-1.762,12.876,12.876,0,0,0,2.34-1.037" transform="translate(-5.656 -0.26)" fill="#fcc602"></path><path id="Path_17" data-name="Path 17" d="M28.722,5.29c.819-.148,2.394.156,2.847,1.162-1.17-.062-1.505.523-2.535.624-.608.062-1.739-.328-1.723-.858s.46-.78,1.412-.928" transform="translate(-5.936 -1.163)" fill="#fcc602"></path><path id="Path_18" data-name="Path 18" d="M24.014,3A3.681,3.681,0,0,1,22.8,5.823c-.359.343-1.95,1.56-2.277.694a2.527,2.527,0,0,1,1.154-2.09A14.381,14.381,0,0,0,24.014,3" transform="translate(-4.461 -0.667)" fill="#fcc602"></path><path id="Path_19" data-name="Path 19" d="M23.482,7.731c.78-.273,2.386-.195,2.963.733-1.162.109-1.412.733-2.41.983-.6.148-1.762-.07-1.817-.6s.351-.78,1.263-1.115" transform="translate(-4.828 -1.678)" fill="#fcc602"></path><path id="Path_20" data-name="Path 20" d="M18.505,6.18a3.665,3.665,0,0,1-.725,2.963c-.3.4-1.638,1.9-2.106,1.084A2.566,2.566,0,0,1,16.517,8,14.56,14.56,0,0,0,18.505,6.18" transform="translate(-3.404 -1.367)" fill="#fcc602"></path><path id="Path_21" data-name="Path 21" d="M18.435,10.888c.78-.429,2.34-.671,3.119.14-1.146.343-1.279,1.014-2.23,1.466-.569.273-1.778.289-1.934-.234s.2-.881,1.061-1.373" transform="translate(-3.772 -2.316)" fill="#fcc602"></path><path id="Path_22" data-name="Path 22" d="M13.8,9.7a3.837,3.837,0,0,1-.328,3.119c-.25.452-1.419,2.184-2.012,1.427a2.636,2.636,0,0,1,.554-2.418A15.2,15.2,0,0,0,13.8,9.68" transform="translate(-2.503 -2.138)" fill="#fcc602"></path><path id="Path_23" data-name="Path 23" d="M14.015,14.955c.678-.515,2.223-.959,3.049-.257-1.076.476-1.131,1.154-2.012,1.723-.523.328-1.7.5-1.911,0s.094-.889.873-1.474" transform="translate(-2.842 -3.132)" fill="#fcc602"></path><path id="Path_24" data-name="Path 24" d="M9.486,14a4.008,4.008,0,0,1,.234,3.283c-.172.507-1.053,2.511-1.794,1.848a2.745,2.745,0,0,1,.125-2.574A16.26,16.26,0,0,0,9.486,14" transform="translate(-1.687 -3.057)" fill="#fcc602"></path><path id="Path_25" data-name="Path 25" d="M10.289,19.311c.569-.593,1.981-1.256,2.87-.717-.92.624-.92,1.271-1.7,1.95-.452.4-1.56.78-1.817.3s0-.858.616-1.56" transform="translate(-2.101 -4.017)" fill="#fcc602"></path><path id="Path_26" data-name="Path 26" d="M5.742,19.75a4.164,4.164,0,0,1,.351,3.314c-.14.515-.9,2.566-1.638,1.934a2.909,2.909,0,0,1,0-2.581,17.649,17.649,0,0,0,1.271-2.628" transform="translate(-0.914 -4.31)" fill="#fcc602"></path><path id="Path_27" data-name="Path 27" d="M7.226,24.216c.53-.7,1.934-1.56,2.932-1.146-.928.78-.78,1.466-1.513,2.285-.429.476-1.56.99-1.879.569s-.14-.9.46-1.708" transform="translate(-1.455 -5.012)" fill="#fcc602"></path><path id="Path_28" data-name="Path 28" d="M2.657,25.87A3.681,3.681,0,0,1,3.71,28.755c0,.507-.3,2.55-1.139,2.168a2.558,2.558,0,0,1-.546-2.34,16.05,16.05,0,0,0,.632-2.7" transform="translate(-0.427 -5.644)" fill="#fcc602"></path><path id="Path_29" data-name="Path 29" d="M5.206,29.63c.4-.78,1.638-1.989,2.73-1.739-.78.975-.53,1.63-1.092,2.589-.328.608-1.357,1.3-1.778.951s-.312-.866.14-1.8" transform="translate(-1.057 -6.079)" fill="#fcc602"></path><path id="Path_30" data-name="Path 30" d="M.947,32.33a3.634,3.634,0,0,1,1.326,2.737c0,.5-.047,2.55-.912,2.254a2.527,2.527,0,0,1-.78-2.262,15.278,15.278,0,0,0,.359-2.73" transform="translate(-0.121 -7.052)" fill="#fcc602"></path><path id="Path_31" data-name="Path 31" d="M3.728,35.839c.234-.858,1.209-2.223,2.293-2.2C5.452,34.7,5.81,35.3,5.452,36.33c-.226.616-1.068,1.513-1.56,1.263s-.46-.78-.187-1.755" transform="translate(-0.772 -7.339)" fill="#fcc602"></path><path id="Path_32" data-name="Path 32" d="M45.57,0a3.587,3.587,0,0,0,2.1,2.238c.46.195,2.386.78,2.394-.156A2.457,2.457,0,0,0,48.245.546,14.092,14.092,0,0,1,45.593,0" transform="translate(-9.904 -0.007)" fill="#fcc602"></path><path id="Path_33" data-name="Path 33" d="M47.125,3.65c-.881,0-2.457.616-2.745,1.747,1.2-.289,1.646.25,2.73.164.647-.078,1.739-.671,1.653-1.217s-.6-.694-1.614-.694" transform="translate(-9.645 -0.81)" fill="#fcc602"></path><path id="Path_34" data-name="Path 34" d="M52.243,1.15a3.4,3.4,0,0,0,1.49,2.464c.382.273,2.02,1.209,2.215.335A2.34,2.34,0,0,0,54.56,2.187,12.875,12.875,0,0,1,52.22,1.15" transform="translate(-11.351 -0.26)" fill="#fcc602"></path><path id="Path_35" data-name="Path 35" d="M53.1,5.29c-.78-.148-2.394.156-2.846,1.162,1.17-.062,1.505.523,2.535.624.608.062,1.739-.328,1.723-.858s-.46-.78-1.412-.928" transform="translate(-10.922 -1.163)" fill="#fcc602"></path><path id="Path_36" data-name="Path 36" d="M58.07,3a3.658,3.658,0,0,0,1.217,2.823c.359.343,1.95,1.56,2.277.694a2.527,2.527,0,0,0-1.209-2.09A14.381,14.381,0,0,1,58.07,3" transform="translate(-12.623 -0.667)" fill="#fcc602"></path><path id="Path_37" data-name="Path 37" d="M58.343,7.731c-.78-.273-2.386-.195-2.963.733,1.162.109,1.412.733,2.41.983.6.148,1.762-.07,1.817-.6s-.351-.78-1.263-1.115" transform="translate(-12.037 -1.678)" fill="#fcc602"></path><path id="Path_38" data-name="Path 38" d="M63.692,6.18a3.665,3.665,0,0,0,.725,2.963c.289.4,1.638,1.9,2.1,1.084A2.527,2.527,0,0,0,65.68,8,14.124,14.124,0,0,1,63.692,6.18" transform="translate(-13.833 -1.367)" fill="#fcc602"></path><path id="Path_39" data-name="Path 39" d="M63.4,10.888c-.78-.429-2.34-.671-3.119.14,1.146.343,1.279,1.014,2.23,1.466.569.273,1.778.289,1.934-.234s-.2-.881-1.061-1.373" transform="translate(-13.102 -2.316)" fill="#fcc602"></path><path id="Path_40" data-name="Path 40" d="M68.476,9.7a3.837,3.837,0,0,0,.328,3.119c.25.452,1.419,2.184,2.012,1.427a2.636,2.636,0,0,0-.554-2.418A15.2,15.2,0,0,1,68.476,9.68" transform="translate(-14.815 -2.138)" fill="#fcc602"></path><path id="Path_41" data-name="Path 41" d="M67.877,14.955C67.2,14.44,65.654,14,64.82,14.7c1.076.476,1.139,1.154,2.02,1.723.523.328,1.7.5,1.911,0s-.094-.889-.873-1.474" transform="translate(-14.089 -3.132)" fill="#fcc602"></path><path id="Path_42" data-name="Path 42" d="M72.925,14a4.008,4.008,0,0,0-.234,3.283c.172.507,1.053,2.511,1.794,1.848a2.745,2.745,0,0,0-.125-2.574A16.258,16.258,0,0,1,72.925,14" transform="translate(-15.731 -3.057)" fill="#fcc602"></path><path id="Path_43" data-name="Path 43" d="M71.71,19.311c-.569-.593-1.981-1.256-2.87-.717.959.624.912,1.271,1.669,1.95.452.4,1.56.78,1.817.3s0-.858-.616-1.56" transform="translate(-14.937 -4.017)" fill="#fcc602"></path><path id="Path_44" data-name="Path 44" d="M76.678,19.75a4.164,4.164,0,0,0-.351,3.275c.14.515.9,2.566,1.638,1.934a2.909,2.909,0,0,0,0-2.581,17.648,17.648,0,0,1-1.271-2.628" transform="translate(-16.545 -4.31)" fill="#fcc602"></path><path id="Path_45" data-name="Path 45" d="M74.79,24.216c-.53-.7-1.934-1.56-2.94-1.146.928.78.78,1.466,1.56,2.285.421.476,1.56.99,1.872.569s.148-.9-.452-1.708" transform="translate(-15.6 -5.012)" fill="#fcc602"></path><path id="Path_46" data-name="Path 46" d="M79.859,25.87a3.681,3.681,0,0,0-1.053,2.885c0,.507.3,2.55,1.139,2.168a2.558,2.558,0,0,0,.546-2.34,16.051,16.051,0,0,1-.632-2.7" transform="translate(-17.129 -5.644)" fill="#fcc602"></path><path id="Path_47" data-name="Path 47" d="M76.922,29.63c-.39-.78-1.63-1.989-2.722-1.739.78.975.53,1.63,1.092,2.589.335.569,1.357,1.3,1.778.951s.312-.866-.148-1.8" transform="translate(-16.117 -6.079)" fill="#fcc602"></path><path id="Path_48" data-name="Path 48" d="M81.626,32.33A3.634,3.634,0,0,0,80.3,35.067c0,.5.047,2.55.912,2.254a2.527,2.527,0,0,0,.78-2.262,15.278,15.278,0,0,1-.359-2.73" transform="translate(-17.46 -7.052)" fill="#fcc602"></path><path id="Path_49" data-name="Path 49" d="M78.583,35.839c-.234-.858-1.209-2.223-2.293-2.2.577,1.084.211,1.661.577,2.691.226.616,1.068,1.513,1.56,1.263s.46-.78.187-1.755" transform="translate(-16.577 -7.339)" fill="#fcc602"></path><path id="Path_50" data-name="Path 50" d="M42.641,2.236a1.365,1.365,0,1,1-2.722,0,1.365,1.365,0,1,1,2.722,0" transform="translate(-8.678 -0.176)" fill="#fcc602"></path><path id="Path_51" data-name="Path 51" d="M45.67,82.335a3.6,3.6,0,0,1,2.1-2.246c.452-.187,2.34-.78,2.394.164a2.472,2.472,0,0,1-1.84,1.56,13.852,13.852,0,0,0-2.652.546" transform="translate(-9.926 -17.389)" fill="#fcc602"></path><path id="Path_52" data-name="Path 52" d="M47.227,78.878c-.873,0-2.449-.616-2.737-1.747,1.193.289,1.646-.25,2.73-.164.639.055,1.739.671,1.63,1.217s-.608.694-1.622.694" transform="translate(-9.669 -16.778)" fill="#fcc602"></path><path id="Path_53" data-name="Path 53" d="M52.341,81.026a3.4,3.4,0,0,1,1.49-2.464c.382-.273,2.02-1.217,2.215-.335a2.34,2.34,0,0,1-1.4,1.763,13.4,13.4,0,0,0-2.34,1.037" transform="translate(-11.37 -16.976)" fill="#fcc602"></path><path id="Path_54" data-name="Path 54" d="M53.194,77.264c-.78.148-2.4-.156-2.854-1.162,1.178.062,1.505-.523,2.535-.624.616-.062,1.739.328,1.723.858s-.46.78-1.4.928" transform="translate(-10.941 -16.451)" fill="#fcc602"></path><path id="Path_55" data-name="Path 55" d="M58.16,79.021A3.657,3.657,0,0,1,59.384,76.2c.359-.343,1.95-1.56,2.277-.694a2.519,2.519,0,0,1-1.217,2.067,15.112,15.112,0,0,0-2.285,1.451" transform="translate(-12.642 -16.391)" fill="#fcc602"></path><path id="Path_56" data-name="Path 56" d="M58.441,74.8c-.78.265-2.394.195-2.971-.733,1.162-.109,1.412-.733,2.418-.983.6-.148,1.763.07,1.817.6s-.351.78-1.263,1.115" transform="translate(-12.056 -15.916)" fill="#fcc602"></path><path id="Path_57" data-name="Path 57" d="M63.791,75.681a3.658,3.658,0,0,1,.717-2.963c.3-.4,1.638-1.9,2.106-1.084a2.519,2.519,0,0,1-.842,2.23,14.1,14.1,0,0,0-1.981,1.817" transform="translate(-13.854 -15.553)" fill="#fcc602"></path><path id="Path_58" data-name="Path 58" d="M63.5,71.6c-.741.429-2.34.671-3.119-.14,1.139-.343,1.279-1.014,2.23-1.466.569-.273,1.77-.289,1.926.234s-.2.873-1.053,1.373" transform="translate(-13.123 -15.204)" fill="#fcc602"></path><path id="Path_59" data-name="Path 59" d="M68.575,72.023A3.775,3.775,0,0,1,68.9,68.9c.242-.452,1.419-2.184,2-1.427a2.636,2.636,0,0,1-.554,2.418,15.183,15.183,0,0,0-1.778,2.152" transform="translate(-14.836 -14.649)" fill="#fcc602"></path><path id="Path_60" data-name="Path 60" d="M67.969,67.438c-.671.515-2.223.959-3.049.257,1.076-.484,1.131-1.162,2.012-1.724.53-.328,1.708-.5,1.911,0s-.094.889-.873,1.474" transform="translate(-14.111 -14.321)" fill="#fcc602"></path><path id="Path_61" data-name="Path 61" d="M73.024,67.6a3.977,3.977,0,0,1-.234-3.283c.172-.507,1.053-2.511,1.794-1.848a2.768,2.768,0,0,1-.125,2.574A16.261,16.261,0,0,0,73.024,67.6" transform="translate(-15.752 -13.591)" fill="#fcc602"></path><path id="Path_62" data-name="Path 62" d="M71.8,63.005c-.569.593-1.973,1.256-2.862.717.951-.616.9-1.271,1.661-1.942.452-.406,1.56-.78,1.817-.312s0,.85-.616,1.56" transform="translate(-14.959 -13.36)" fill="#fcc602"></path><path id="Path_63" data-name="Path 63" d="M76.777,61.816a4.164,4.164,0,0,1-.359-3.275c.148-.515.9-2.566,1.638-1.934a2.854,2.854,0,0,1,0,2.581,16.939,16.939,0,0,0-1.263,2.628" transform="translate(-16.565 -12.315)" fill="#fcc602"></path><path id="Path_64" data-name="Path 64" d="M74.882,57.974c-.53.7-1.926,1.56-2.932,1.146.928-.78.78-1.474,1.513-2.285.429-.476,1.56-.99,1.879-.569s.148.9-.46,1.708" transform="translate(-15.622 -12.238)" fill="#fcc602"></path><path id="Path_65" data-name="Path 65" d="M79.959,55.76a3.657,3.657,0,0,1-1.053-2.885c0-.507.3-2.55,1.139-2.168a2.574,2.574,0,0,1,.546,2.34,15.324,15.324,0,0,0-.632,2.7" transform="translate(-17.151 -11.046)" fill="#fcc602"></path><path id="Path_66" data-name="Path 66" d="M77.022,52.406c-.4.78-1.63,1.989-2.722,1.739.78-.975.523-1.63,1.092-2.589.335-.569,1.349-1.3,1.77-.951s.32.866-.14,1.8" transform="translate(-16.139 -11.017)" fill="#fcc602"></path><path id="Path_67" data-name="Path 67" d="M81.686,49.323a3.6,3.6,0,0,1-1.326-2.737c0-.5.047-2.55.9-2.254a2.5,2.5,0,0,1,.78,2.262,15.332,15.332,0,0,0-.351,2.73" transform="translate(-17.473 -9.661)" fill="#fcc602"></path><path id="Path_68" data-name="Path 68" d="M78.67,46.1c-.234.858-1.209,2.223-2.34,2.2.577-1.084.218-1.661.585-2.691.226-.616,1.061-1.513,1.56-1.263s.46.78.187,1.755" transform="translate(-16.586 -9.663)" fill="#fcc602"></path><path id="Path_69" data-name="Path 69" d="M36.272,82.335a3.6,3.6,0,0,0-2.1-2.246c-.452-.187-2.379-.78-2.394.164a2.472,2.472,0,0,0,1.84,1.56,13.852,13.852,0,0,1,2.652.546" transform="translate(-6.907 -17.389)" fill="#fcc602"></path><path id="Path_70" data-name="Path 70" d="M34.76,78.878c.873,0,2.457-.616,2.745-1.747-1.2.289-1.653-.25-2.73-.164-.647.055-1.747.671-1.638,1.217s.608.694,1.622.694" transform="translate(-7.2 -16.778)" fill="#fcc602"></path><path id="Path_71" data-name="Path 71" d="M29.835,81.026a3.431,3.431,0,0,0-1.458-2.464c-.374-.273-2.02-1.217-2.207-.335a2.34,2.34,0,0,0,1.388,1.762,13.719,13.719,0,0,1,2.34,1.037" transform="translate(-5.689 -16.976)" fill="#fcc602"></path><path id="Path_72" data-name="Path 72" d="M28.814,77.264c.827.148,2.4-.156,2.854-1.162-1.17.062-1.505-.523-2.535-.624-.616-.062-1.739.328-1.723.858s.46.78,1.4.928" transform="translate(-5.957 -16.451)" fill="#fcc602"></path><path id="Path_73" data-name="Path 73" d="M24.062,79.021A3.681,3.681,0,0,0,22.845,76.2c-.367-.343-1.957-1.56-2.285-.694a2.519,2.519,0,0,0,1.217,2.067,15.113,15.113,0,0,1,2.285,1.451" transform="translate(-4.469 -16.391)" fill="#fcc602"></path><path id="Path_74" data-name="Path 74" d="M23.579,74.8c.78.265,2.386.195,2.963-.733-1.162-.109-1.412-.733-2.418-.983-.593-.148-1.755.07-1.817.6s.359.78,1.271,1.115" transform="translate(-4.847 -15.916)" fill="#fcc602"></path><path id="Path_75" data-name="Path 75" d="M18.6,75.681a3.658,3.658,0,0,0-.717-2.963c-.3-.4-1.638-1.9-2.106-1.084a2.519,2.519,0,0,0,.842,2.23A14.1,14.1,0,0,1,18.6,75.681" transform="translate(-3.425 -15.553)" fill="#fcc602"></path><path id="Path_76" data-name="Path 76" d="M18.527,71.6c.78.429,2.34.671,3.119-.14-1.139-.343-1.271-1.014-2.23-1.466-.569-.273-1.77-.289-1.926.234s.2.873,1.053,1.373" transform="translate(-3.794 -15.204)" fill="#fcc602"></path><path id="Path_77" data-name="Path 77" d="M13.9,72.023a3.806,3.806,0,0,0-.335-3.119c-.242-.452-1.419-2.184-2-1.427a2.636,2.636,0,0,0,.554,2.418A15.745,15.745,0,0,1,13.9,72.047" transform="translate(-2.525 -14.649)" fill="#fcc602"></path><path id="Path_78" data-name="Path 78" d="M14.115,67.438c.671.515,2.223.959,3.049.257-1.076-.484-1.131-1.162-2.012-1.724-.53-.328-1.7-.5-1.911,0s.094.889.873,1.474" transform="translate(-2.864 -14.321)" fill="#fcc602"></path><path id="Path_79" data-name="Path 79" d="M9.538,67.6a3.946,3.946,0,0,0,.234-3.283c-.172-.507-1.053-2.511-1.794-1.848A2.792,2.792,0,0,0,8.1,65.046,16.26,16.26,0,0,1,9.538,67.6" transform="translate(-1.7 -13.591)" fill="#fcc602"></path><path id="Path_80" data-name="Path 80" d="M10.4,63.005c.569.593,1.973,1.256,2.862.717-.951-.616-.9-1.271-1.661-1.942-.452-.406-1.56-.78-1.817-.312s-.039.85.616,1.56" transform="translate(-2.13 -13.36)" fill="#fcc602"></path><path id="Path_81" data-name="Path 81" d="M5.832,61.816a4.164,4.164,0,0,0,.359-3.275c-.148-.515-.9-2.566-1.638-1.934a2.854,2.854,0,0,0,0,2.581,16.939,16.939,0,0,1,1.263,2.628" transform="translate(-0.934 -12.315)" fill="#fcc602"></path><path id="Path_82" data-name="Path 82" d="M7.326,57.974c.53.7,1.926,1.56,2.932,1.146-.928-.78-.78-1.474-1.513-2.285-.429-.476-1.56-.99-1.879-.569s-.148.9.46,1.708" transform="translate(-1.477 -12.238)" fill="#fcc602"></path><path id="Path_83" data-name="Path 83" d="M2.787,55.76A3.658,3.658,0,0,0,3.8,52.875c0-.507-.3-2.55-1.139-2.168a2.574,2.574,0,0,0-.546,2.34,15.324,15.324,0,0,1,.671,2.714" transform="translate(-0.447 -11.046)" fill="#fcc602"></path><path id="Path_84" data-name="Path 84" d="M5.306,52.406c.4.78,1.63,1.989,2.722,1.739-.78-.975-.523-1.63-1.092-2.589-.335-.569-1.349-1.3-1.77-.951s-.312.866.14,1.8" transform="translate(-1.079 -11.017)" fill="#fcc602"></path><path id="Path_85" data-name="Path 85" d="M1.047,49.323a3.658,3.658,0,0,0,1.326-2.737c0-.5-.047-2.55-.912-2.254a2.5,2.5,0,0,0-.78,2.262,16.026,16.026,0,0,1,.359,2.73" transform="translate(-0.142 -9.661)" fill="#fcc602"></path><path id="Path_86" data-name="Path 86" d="M3.816,46.107c.234.858,1.209,2.223,2.34,2.2-.616-1.115-.25-1.661-.624-2.675-.218-.616-1.061-1.513-1.56-1.263s-.452.78-.187,1.755" transform="translate(-0.79 -9.668)" fill="#fcc602"></path><path id="Path_87" data-name="Path 87" d="M39.9,80.04a1.365,1.365,0,1,1,1.365,1.419A1.388,1.388,0,0,1,39.9,80.04" transform="translate(-8.675 -17.168)" fill="#fcc602"></path><path id="Path_88" data-name="Path 88" d="M23.574,23.1a18.483,18.483,0,0,0-4.937.351,8.173,8.173,0,0,1-2.924,0c.242.92,0,7.588,0,14.232,0,0,.133,7.066.133,11.7a5.178,5.178,0,0,1-.265,1.56s.725-.4,3.119-.125c7.019,1.217,10.013-6.527,10.661-12.883.92-8.976-1.49-14.365-5.841-14.817m.967,18.475a9.187,9.187,0,0,1-2.714,4.679,1.872,1.872,0,0,1-1.708.289V27.482a16.259,16.259,0,0,1,1.762-.125c2.948.055,3.236,2.995,3.439,6.286a27.639,27.639,0,0,1-.78,7.947" transform="translate(-3.378 -5.001)" fill="#fff"></path><path id="Path_89" data-name="Path 89" d="M23.574,23.1a18.483,18.483,0,0,0-4.937.351,8.173,8.173,0,0,1-2.924,0c.242.92,0,7.588,0,14.232,0,0,.133,7.066.133,11.7a5.178,5.178,0,0,1-.265,1.56s.725-.4,3.119-.125c7.019,1.217,10.013-6.527,10.661-12.883C30.335,28.941,27.925,23.552,23.574,23.1Zm.912,18.491a9.187,9.187,0,0,1-2.714,4.679,1.872,1.872,0,0,1-1.708.289V27.482a16.259,16.259,0,0,1,1.762-.125c2.948.055,3.236,2.995,3.439,6.286a27.639,27.639,0,0,1-.78,7.947Z" transform="translate(-3.378 -5.001)" fill="none" stroke="#006cb2" stroke-miterlimit="3.86" stroke-width="0.24"></path><path id="Path_90" data-name="Path 90" d="M48.627,52.164c-.382-1.393-5.459-32.319-5.459-32.319a1.656,1.656,0,0,1,.335-1.331c-1.084-.9-5.631-.986-6.808,0,.39.352.335.579.374.947l-.71,3.859L31.985,51.678a4.351,4.351,0,0,1-1.435,3.006,10,10,0,0,0,6.021,1.182,2.482,2.482,0,0,1-.172-1.378c0-.172.312-2.935.725-6.262h6.083c.5,3.131.78,5.479.873,5.886a2.355,2.355,0,0,1-.32,1.847c1.263.047,5.124-.164,5.935-1.284a6.117,6.117,0,0,1-1.068-2.52M37.85,43.46l2.293-16.265s1.022,8.767,2.223,16.242Z" transform="translate(-6.612 -3.911)" fill="#fcc602"></path><path id="Path_91" data-name="Path 91" d="M48.627,52.164c-.382-1.393-5.459-32.319-5.459-32.319a1.656,1.656,0,0,1,.335-1.331c-1.084-.9-5.631-.986-6.808,0,.39.352.335.579.374.947l-.71,3.859L31.985,51.678a4.351,4.351,0,0,1-1.435,3.006,10,10,0,0,0,6.021,1.182,2.482,2.482,0,0,1-.172-1.378c0-.172.312-2.935.725-6.262h6.083c.5,3.131.78,5.479.873,5.886a2.355,2.355,0,0,1-.32,1.847c1.263.047,5.124-.164,5.935-1.284a6.117,6.117,0,0,1-1.068-2.513ZM37.85,43.46l2.293-16.265s1.022,8.767,2.223,16.242Z" transform="translate(-6.612 -3.911)" fill="#fff" stroke="#006cb2" stroke-linejoin="round" stroke-width="0.24"></path><path id="Path_92" data-name="Path 92" d="M61.815,50.5c-3.119.78-6.161-1.56-7.229,1.232.172-.437-1.4-9.491-1.4-9.491.639.78,2.5,3.79,5.264,3.9a2.5,2.5,0,0,0,2.6-1.271c1.224-2.34-2.55-5.389-5.2-8.516-2.09-2.449-4.211-5.194-3.572-8.524.554-2.847,3.447-6.1,8.633-4.679,2.067.577,2.776-.156,2.776-.156l.335,8.454c-.226-.616-1.505-3.322-4-4.164-1.747-.569-3.775,1.029-2.488,3.47.437.78,2.488,3.119,3.307,4.235,1.731,2.34,6.465,5.732,4.937,10.98-.624,2.152-2.184,4.118-3.962,4.57" transform="translate(-11.309 -4.943)" fill="#fff"></path><path id="Path_93" data-name="Path 93" d="M61.815,50.5c-3.119.78-6.161-1.56-7.229,1.232.172-.437-1.4-9.491-1.4-9.491.639.78,2.5,3.79,5.264,3.9a2.5,2.5,0,0,0,2.6-1.271c1.224-2.34-2.55-5.389-5.2-8.516-2.09-2.449-4.211-5.194-3.572-8.524.554-2.847,3.447-6.1,8.633-4.679,2.067.577,2.776-.156,2.776-.156l.335,8.454c-.226-.616-1.505-3.322-4-4.164-1.747-.569-3.775,1.029-2.488,3.47.437.78,2.488,3.119,3.307,4.235,1.731,2.34,6.465,5.732,4.937,10.98C65.153,48.085,63.593,50.05,61.815,50.5Z" transform="translate(-11.309 -4.943)" fill="none" stroke="#006cb2" stroke-miterlimit="3.86" stroke-width="0.24"></path></g></svg>