<svg version="1.1" xmlns="http://www.w3.org/2000/svg" xmlns:xlink="http://www.w3.org/1999/xlink" x="0px" y="0px" viewBox="0 0 591.597 225.342" enable-background="new 0 0 591.597 225.342" xml:space="preserve"><path fill="#139C9A" d="M178.071,166.503c-32.196,0-56.999-23.374-56.999-56.285c0-32.912,24.803-56.522,56.999-56.522c32.197,0,56.761,23.61,56.761,56.522C234.833,143.129,210.269,166.503,178.071,166.503 M178.071,67.052c-23.372,0-41.736,17.886-41.736,43.166c0,25.279,18.364,42.928,41.736,42.928c22.895,0,41.498-17.649,41.498-42.928C219.569,84.938,200.966,67.052,178.071,67.052 M418.026,166.503c-32.196,0-56.999-23.374-56.999-56.285c0-32.912,24.803-56.522,56.999-56.522s56.761,23.61,56.761,56.522C474.787,143.129,450.222,166.503,418.026,166.503 M418.026,67.052c-23.372,0-41.735,17.886-41.735,43.166c0,25.279,18.363,42.928,41.735,42.928c22.895,0,41.498-17.649,41.498-42.928C459.524,84.938,440.92,67.052,418.026,67.052 M298.104,53.696c-16.864,0-31.69,6.486-41.996,17.385V0h-15.003v111.005h0.019c0.395,32.494,25.043,55.498,56.98,55.498c32.197,0,56.761-23.374,56.761-56.285C354.865,77.307,330.301,53.696,298.104,53.696 M298.104,153.146c-23.372,0-41.735-17.648-41.735-42.928c0-25.28,18.363-43.166,41.735-43.166c22.896,0,41.498,17.886,41.498,43.166C339.602,135.498,321,153.146,298.104,153.146 M113.761,109.98c0-32.912-24.564-56.285-56.762-56.285c-31.937,0-56.585,23.004-56.98,55.498H0v111.005h15.003v-71.081c10.306,10.899,25.133,17.386,41.996,17.386C89.197,166.503,113.761,142.892,113.761,109.98 M98.497,109.98c0,25.28-18.603,43.166-41.498,43.166c-23.372,0-41.735-17.886-41.735-43.166c0-25.28,18.363-42.928,41.735-42.928C79.894,67.053,98.497,84.701,98.497,109.98 M478.949,87.062c-0.132,0.384-0.248,0.771-0.349,1.162 M581.123,114.284l-82.444-22.091c6.452-15.21,20.97-24.875,38.171-24.804c16.48,0.069,30.688,9.433,37.262,24.123l17.486,4.686c-5.928-25.07-27.553-42.001-54.693-42.114c-24.427-0.101-44.638,13.458-52.945,34.413c-2.726,7.774-2.669,15.084,8.895,18.183l81.543,21.849l0.046,0.012l0.034,0.01l-0.08-0.022c-6.452,15.21-21.048,25.169-38.25,25.097c-16.475-0.068-30.678-9.426-37.256-24.108l-17.489-4.686c5.935,25.062,27.556,41.986,54.69,42.1c24.395,0.102,44.585-13.424,52.912-34.333l0.005,0.001c0.007-0.019,0.012-0.039,0.019-0.059c0.003-0.007,0.008-0.016,0.011-0.022l-0.002-0.001C591.85,124.629,589.263,116.462,581.123,114.284"></path><path class="baseline-fr" d="M29.604,203.405h3.218v6.235c0.964-1.242,2.332-1.876,3.777-1.876c3.117,0,5.423,2.434,5.423,6.438c0,4.081-2.331,6.412-5.423,6.412c-1.47,0-2.813-0.658-3.777-1.875v1.572h-3.218V203.405z M35.585,217.751c1.875,0,3.117-1.42,3.117-3.549s-1.242-3.573-3.117-3.573c-1.039,0-2.23,0.608-2.763,1.419v4.334C33.355,217.168,34.546,217.751,35.585,217.751 M56.016,220.311h3.219v-12.241h-3.219v8.287c-0.558,0.71-1.546,1.395-2.788,1.395c-1.369,0-2.256-0.558-2.256-2.256v-7.426h-3.219v8.693c0,2.382,1.267,3.853,3.954,3.853c2.002,0,3.473-0.913,4.309-1.851V220.311z M65.725,220.311h3.219v-8.085c0.532-0.786,1.951-1.394,3.016-1.394c0.355,0,0.659,0.051,0.887,0.101v-3.143c-1.521,0-3.041,0.862-3.903,1.952v-1.673h-3.219V220.311z M83.696,207.766c3.65,0,6.133,2.736,6.133,6.741v0.709h-9.098c0.202,1.548,1.444,2.84,3.523,2.84c1.14,0,2.483-0.457,3.269-1.218l1.419,2.079c-1.216,1.115-3.142,1.697-5.043,1.697c-3.726,0-6.539-2.509-6.539-6.438C77.36,210.629,79.97,207.766,83.696,207.766 M80.68,213.036h6.032c-0.076-1.165-0.887-2.712-3.016-2.712C81.694,210.324,80.833,211.82,80.68,213.036 M102.809,219.043c-0.836,0.989-2.281,1.571-3.878,1.571c-1.952,0-4.258-1.317-4.258-4.055c0-2.864,2.306-3.903,4.258-3.903c1.622,0,3.067,0.507,3.878,1.495v-1.697c0-1.242-1.064-2.054-2.687-2.054c-1.317,0-2.534,0.481-3.573,1.445l-1.217-2.154c1.496-1.318,3.422-1.927,5.348-1.927c2.788,0,5.348,1.115,5.348,4.639v7.907h-3.219V219.043z M102.809,215.85c-0.532-0.709-1.546-1.063-2.585-1.063c-1.268,0-2.307,0.658-2.307,1.85c0,1.141,1.039,1.799,2.307,1.799c1.039,0,2.053-0.354,2.585-1.063V215.85z M120.781,220.311H124v-12.241h-3.219v8.287c-0.558,0.71-1.546,1.395-2.788,1.395c-1.369,0-2.256-0.558-2.256-2.256v-7.426h-3.219v8.693c0,2.382,1.267,3.853,3.954,3.853c2.002,0,3.473-0.913,4.309-1.851V220.311z M129.653,215.546h6.083v-2.737h-6.083V215.546z M147.092,207.765c-3.776,0-6.488,2.661-6.488,6.412c0,3.776,2.712,6.438,6.488,6.438c2.509,0,4.03-1.091,4.841-2.23l-2.104-1.952c-0.583,0.812-1.47,1.318-2.585,1.318c-1.951,0-3.32-1.445-3.32-3.574s1.369-3.548,3.32-3.548c1.115,0,2.002,0.456,2.585,1.318l2.104-1.978C151.122,208.854,149.601,207.765,147.092,207.765 M156.548,214.177c0-3.472,2.433-6.412,6.462-6.412c4.056,0,6.489,2.94,6.489,6.412c0,3.498-2.433,6.438-6.489,6.438C158.981,220.614,156.548,217.675,156.548,214.177 M166.153,214.177c0-1.899-1.14-3.548-3.143-3.548c-2.002,0-3.117,1.648-3.117,3.548c0,1.927,1.115,3.574,3.117,3.574C165.013,217.751,166.153,216.104,166.153,214.177 M183.441,220.311h3.219v-8.643c0-2.383-1.293-3.903-3.98-3.903c-2.002,0-3.497,0.963-4.283,1.901v-1.597h-3.219v12.241h3.219v-8.237c0.532-0.734,1.521-1.444,2.788-1.444c1.369,0,2.256,0.583,2.256,2.281V220.311z M192.085,218.714c1.292,1.191,3.346,1.9,5.475,1.9c3.396,0,5.296-1.697,5.296-3.927c0-3.068-2.813-3.651-4.917-4.057c-1.368-0.277-2.331-0.481-2.331-1.191c0-0.684,0.76-1.216,1.926-1.216c1.495,0,2.889,0.633,3.624,1.42l1.293-2.206c-1.217-0.962-2.864-1.673-4.942-1.673c-3.219,0-5.018,1.8-5.018,3.853c0,2.941,2.712,3.473,4.815,3.878c1.343,0.253,2.459,0.482,2.459,1.317c0,0.761-0.66,1.318-2.054,1.318c-1.52,0-3.345-0.836-4.232-1.673L192.085,218.714z M214.087,207.766c3.65,0,6.133,2.736,6.133,6.741v0.709h-9.098c0.202,1.548,1.444,2.84,3.523,2.84c1.14,0,2.483-0.457,3.269-1.218l1.419,2.079c-1.216,1.115-3.142,1.697-5.043,1.697c-3.726,0-6.539-2.509-6.539-6.438C207.751,210.629,210.361,207.766,214.087,207.766 M211.071,213.036h6.032c-0.076-1.165-0.887-2.712-3.016-2.712C212.085,210.324,211.223,211.82,211.071,213.036 M225.52,204.825c0-1.064,0.887-1.901,1.926-1.901c1.064,0,1.926,0.837,1.926,1.901s-0.862,1.926-1.926,1.926C226.407,206.751,225.52,205.89,225.52,204.825 M225.849,208.069h3.219v12.241h-3.219V208.069z M235.558,220.311h3.219v-16.905h-3.219V220.311z M260.776,207.765c3.726,0,5.779,2.966,5.779,6.489v0.354h-10.239c0.126,2.661,1.901,4.866,4.79,4.866c1.546,0,2.965-0.583,4.004-1.698l0.685,0.861c-1.217,1.268-2.763,1.977-4.791,1.977c-3.573,0-6.133-2.661-6.133-6.438C254.872,210.63,257.38,207.765,260.776,207.765 M256.316,213.568h8.896c-0.025-2.078-1.394-4.663-4.461-4.663C257.863,208.905,256.417,211.439,256.316,213.568 M281.511,220.311h1.318v-8.566c0-2.763-1.369-3.979-3.853-3.979c-1.774,0-3.523,1.09-4.409,2.154v-1.85h-1.319v12.241h1.319v-9.251c0.785-1.115,2.407-2.103,3.979-2.103c1.774,0,2.965,0.71,2.965,3.065V220.311z M314.666,220.311h1.317v-8.82c0-2.458-1.089-3.725-3.345-3.725c-1.724,0-3.371,1.166-4.055,2.306c-0.306-1.191-1.318-2.306-3.221-2.306c-1.772,0-3.445,1.369-3.952,2.153v-1.85h-1.318v12.241h1.318v-9.251c0.734-1.115,2.204-2.104,3.496-2.104c1.749,0,2.459,1.064,2.459,2.788v8.566h1.344v-9.276c0.685-1.115,2.18-2.078,3.498-2.078c1.724,0,2.458,1.064,2.458,2.788V220.311z M331.168,218.866c-1.091,1.19-2.459,1.748-4.157,1.748c-2.104,0-4.283-1.444-4.283-4.08c0-2.661,2.154-4.056,4.283-4.056c1.698,0,3.093,0.558,4.157,1.749v-2.483c0-1.825-1.471-2.813-3.295-2.813c-1.521,0-2.713,0.532-3.827,1.8l-0.735-0.912c1.267-1.369,2.686-2.054,4.714-2.054c2.484,0,4.46,1.191,4.46,3.93v8.616h-1.316V218.866z M331.168,215.216c-0.862-1.115-2.23-1.697-3.7-1.697c-2.029,0-3.347,1.292-3.347,3.041c0,1.724,1.317,3.016,3.347,3.016c1.47,0,2.838-0.558,3.7-1.672V215.216z M340.142,217.953c0,1.673,0.784,2.661,2.406,2.661c1.015,0,1.598-0.304,2.078-0.76l-0.506-1.014c-0.279,0.304-0.786,0.583-1.369,0.583c-0.861,0-1.267-0.685-1.267-1.673v-8.517h2.484v-1.165h-2.484v-3.345h-1.343v3.345h-2.028v1.165h2.028V217.953 M349.8,205.129c0-0.558,0.48-0.988,1.013-0.988c0.559,0,1.015,0.431,1.015,0.988s-0.456,1.014-1.015,1.014C350.281,206.143,349.8,205.687,349.8,205.129 M350.154,208.069h1.318v12.241h-1.318V208.069z M364.07,207.765c3.726,0,5.777,2.966,5.777,6.488v0.355h-10.238c0.127,2.661,1.9,4.866,4.79,4.866c1.546,0,2.966-0.583,4.005-1.698l0.684,0.861c-1.216,1.268-2.763,1.977-4.79,1.977c-3.574,0-6.133-2.661-6.133-6.438C358.165,210.63,360.673,207.765,364.07,207.765 M359.609,213.568h8.896c-0.026-2.078-1.394-4.663-4.46-4.663C361.155,208.905,359.71,211.439,359.609,213.568 M359.989,202.569h1.546l3.902,3.649h-1.09L359.989,202.569z M376.541,220.311h1.317v-8.921c0.559-1.065,2.231-2.18,3.473-2.18c0.254,0,0.432,0,0.658,0.05v-1.444c-1.697,0-3.092,0.988-4.131,2.358v-2.104h-1.317V220.311z M393.068,207.765c3.726,0,5.777,2.966,5.777,6.489v0.354h-10.238c0.127,2.661,1.899,4.866,4.79,4.866c1.546,0,2.966-0.583,4.005-1.698l0.684,0.861c-1.216,1.268-2.763,1.977-4.791,1.977c-3.573,0-6.132-2.661-6.132-6.438C387.163,210.63,389.67,207.765,393.068,207.765 M388.607,213.568h8.896c-0.025-2.078-1.394-4.663-4.46-4.663C390.153,208.905,388.708,211.439,388.607,213.568 M424.421,218.359c-0.862,1.267-2.435,2.255-4.26,2.255c-3.243,0-5.473-2.483-5.473-6.412c0-3.878,2.229-6.438,5.473-6.438c1.749,0,3.271,0.888,4.26,2.281v-6.641h1.343v16.905h-1.343V218.359z M424.421,211.187c-0.71-1.19-2.308-2.229-4.03-2.229c-2.712,0-4.283,2.28-4.283,5.245c0,2.966,1.571,5.222,4.283,5.222c1.723,0,3.32-1.014,4.03-2.18V211.187z M438.364,207.765c3.726,0,5.777,2.966,5.777,6.489v0.354h-10.238c0.127,2.661,1.899,4.866,4.79,4.866c1.546,0,2.965-0.583,4.005-1.698l0.684,0.861c-1.216,1.268-2.763,1.977-4.791,1.977c-3.573,0-6.132-2.661-6.132-6.438C432.458,210.63,434.966,207.765,438.364,207.765 M433.903,213.568h8.896c-0.026-2.078-1.394-4.663-4.46-4.663C435.449,208.905,434.004,211.439,433.903,213.568 M460.24,203.405h3.218v6.235c0.963-1.242,2.332-1.876,3.777-1.876c3.117,0,5.423,2.434,5.423,6.438c0,4.081-2.332,6.412-5.423,6.412c-1.47,0-2.814-0.658-3.777-1.875v1.572h-3.218V203.405z M466.221,217.751c1.876,0,3.116-1.42,3.116-3.549s-1.24-3.573-3.116-3.573c-1.039,0-2.23,0.608-2.764,1.419v4.334C463.991,217.168,465.182,217.751,466.221,217.751 M478.06,204.825c0-1.064,0.886-1.901,1.925-1.901c1.065,0,1.928,0.837,1.928,1.901s-0.862,1.926-1.928,1.926C478.946,206.751,478.06,205.89,478.06,204.825 M478.389,208.069h3.219v12.241h-3.219V208.069z M493.649,207.766c3.649,0,6.132,2.736,6.132,6.741v0.709h-9.098c0.203,1.548,1.445,2.84,3.522,2.84c1.142,0,2.484-0.457,3.271-1.218l1.419,2.079c-1.217,1.115-3.143,1.697-5.044,1.697c-3.727,0-6.539-2.509-6.539-6.438C487.312,210.629,489.923,207.766,493.649,207.766 M490.632,213.036h6.031c-0.075-1.165-0.886-2.712-3.015-2.712C491.646,210.324,490.784,211.82,490.632,213.036 M513.673,220.311h3.219v-8.643c0-2.383-1.293-3.903-3.98-3.903c-2.002,0-3.497,0.963-4.282,1.901v-1.597h-3.22v12.241h3.22v-8.237c0.531-0.734,1.521-1.444,2.788-1.444c1.367,0,2.256,0.583,2.256,2.281V220.311z M522.546,215.546h6.082v-2.737h-6.082V215.546z M539.833,207.766c3.649,0,6.132,2.736,6.132,6.741v0.709h-9.098c0.203,1.548,1.445,2.84,3.522,2.84c1.142,0,2.484-0.457,3.271-1.218l1.419,2.079c-1.217,1.115-3.143,1.697-5.044,1.697c-3.727,0-6.538-2.509-6.538-6.438C533.498,210.629,536.108,207.766,539.833,207.766 M539.833,203.963l-1.8,2.256h-1.978l2.331-3.649h2.891l2.383,3.649h-1.979L539.833,203.963z M536.817,213.036h6.031c-0.075-1.165-0.886-2.712-3.015-2.712C537.831,210.324,536.968,211.82,536.817,213.036 M552.229,217.27c0,2.18,1.217,3.345,3.472,3.345c1.343,0,2.205-0.354,2.686-0.784l-0.683-2.435c-0.178,0.178-0.634,0.355-1.116,0.355c-0.71,0-1.114-0.583-1.114-1.344v-5.525h2.483v-2.812h-2.483v-3.346h-3.244v3.346h-2.027v2.812h2.027V217.27 M563.458,220.311h3.219v-8.085c0.532-0.786,1.951-1.394,3.016-1.394c0.355,0,0.659,0.051,0.888,0.101v-3.143c-1.521,0-3.042,0.862-3.903,1.952v-1.673h-3.219V220.311z M581.429,207.766c3.649,0,6.132,2.736,6.132,6.741v0.709h-9.098c0.203,1.548,1.445,2.84,3.522,2.84c1.142,0,2.484-0.457,3.271-1.218l1.419,2.079c-1.217,1.115-3.143,1.697-5.044,1.697c-3.727,0-6.538-2.509-6.538-6.438C575.093,210.629,577.704,207.766,581.429,207.766 M578.413,213.036h6.031c-0.075-1.165-0.886-2.712-3.015-2.712C579.426,210.324,578.564,211.82,578.413,213.036"></path></svg>